<svg xmlns="http://www.w3.org/2000/svg" xmlns:xlink="http://www.w3.org/1999/xlink" xml:space="preserve" width="840" height="360" viewBox="0 0 840 360"><defs><linearGradient id="a"><stop offset="0" style="stop-color:#fff;stop-opacity:1"/><stop offset=".803" style="stop-color:#e1aef7;stop-opacity:1"/><stop offset="1" style="stop-color:#cd87eb;stop-opacity:1"/></linearGradient><linearGradient id="b" x1="16.211" x2="16.211" y1="14.438" y2="29.91" gradientUnits="userSpaceOnUse"><stop stop-color="#5dd8fb"/><stop offset="1" stop-color="#41aef2"/></linearGradient><linearGradient id="d" x1="16.211" x2="16.211" y1="26.781" y2="27.531" gradientUnits="userSpaceOnUse"><stop stop-color="#1748a6"/><stop offset="1" stop-color="#1748a6" stop-opacity="0"/></linearGradient><linearGradient id="e" x1="12.516" x2="5.266" y1="28.656" y2="21.938" gradientUnits="userSpaceOnUse"><stop offset=".75" stop-color="#b3a9cf"/><stop offset=".932" stop-color="#b6bac5"/></linearGradient><linearGradient id="f" x1="19.844" x2="27.094" y1="28.656" y2="21.938" gradientUnits="userSpaceOnUse"><stop offset=".717" stop-color="#bbb3d9"/><stop offset=".913" stop-color="#dcdde8"/></linearGradient><linearGradient id="g" x1="27.976" x2="27.976" y1="8.886" y2="13.327" gradientUnits="userSpaceOnUse"><stop stop-color="#d8dae2"/><stop offset="1" stop-color="#d8dae2" stop-opacity="0"/></linearGradient><linearGradient id="h" x1="16.18" x2="17.797" y1="27" y2="25.094" gradientUnits="userSpaceOnUse"><stop stop-color="#a699c9"/><stop offset="1" stop-color="#a699c9" stop-opacity="0"/></linearGradient><linearGradient id="i" x1="4.805" x2="15.328" y1="17.512" y2="17.512" gradientUnits="userSpaceOnUse"><stop stop-color="#f3f1fa"/><stop offset="1" stop-color="#f0ebf9"/></linearGradient><linearGradient id="j" x1="16.18" x2="13.453" y1="25.688" y2="25.688" gradientUnits="userSpaceOnUse"><stop stop-color="#d5cce8"/><stop offset="1" stop-color="#f2ebff" stop-opacity="0"/></linearGradient><linearGradient id="k" x1="16.234" x2="16.016" y1="25.906" y2="25.906" gradientUnits="userSpaceOnUse"><stop offset=".179" stop-color="#bfb3d1"/><stop offset="1" stop-color="#bfb3d1" stop-opacity="0"/></linearGradient><linearGradient id="l" x1="16.18" x2="26.703" y1="17.512" y2="17.512" gradientUnits="userSpaceOnUse"><stop stop-color="#f3f1fa"/><stop offset="1" stop-color="#f0ebf9"/></linearGradient><linearGradient id="m" x1="16.18" x2="18.984" y1="25.688" y2="25.688" gradientUnits="userSpaceOnUse"><stop stop-color="#d5cce8"/><stop offset="1" stop-color="#f2ebff" stop-opacity="0"/></linearGradient><linearGradient id="n" x1="16.152" x2="16.359" y1="25.906" y2="25.906" gradientUnits="userSpaceOnUse"><stop stop-color="#bfb3d1"/><stop offset="1" stop-color="#bfb3d1" stop-opacity="0"/></linearGradient><linearGradient id="o" x1="167.958" x2="167.958" y1="-.461" y2="335.455" gradientTransform="scale(.46142 2.1672)" gradientUnits="userSpaceOnUse"><stop offset="0%" stop-color="#16b0ed" stop-opacity=".8"/><stop offset="100%" stop-color="#0f59b2" stop-opacity=".837"/></linearGradient><linearGradient id="p" x1="1118.343" x2="1118.343" y1="-.466" y2="338.686" gradientTransform="scale(.46587 2.14653)" gradientUnits="userSpaceOnUse"><stop offset="0%" stop-color="#7db643"/><stop offset="100%" stop-color="#367533"/></linearGradient><linearGradient id="q" x1="356.338" x2="356.338" y1="0" y2="612.901" gradientTransform="scale(.8419 1.1878)" gradientUnits="userSpaceOnUse"><stop offset="0%" stop-color="#88c649" stop-opacity=".8"/><stop offset="100%" stop-color="#439240" stop-opacity=".84"/></linearGradient><linearGradient xlink:href="#b" id="u" x1="16.211" x2="16.211" y1="14.438" y2="29.91" gradientUnits="userSpaceOnUse"/><linearGradient xlink:href="#d" id="x" x1="16.211" x2="16.211" y1="26.781" y2="27.531" gradientUnits="userSpaceOnUse"/><linearGradient xlink:href="#e" id="z" x1="12.516" x2="5.266" y1="28.656" y2="21.938" gradientUnits="userSpaceOnUse"/><linearGradient xlink:href="#f" id="B" x1="19.844" x2="27.094" y1="28.656" y2="21.938" gradientUnits="userSpaceOnUse"/><linearGradient xlink:href="#g" id="C" x1="27.976" x2="27.976" y1="8.886" y2="13.327" gradientUnits="userSpaceOnUse"/><linearGradient xlink:href="#h" id="D" x1="16.18" x2="17.797" y1="27" y2="25.094" gradientUnits="userSpaceOnUse"/><linearGradient xlink:href="#i" id="F" x1="4.805" x2="15.328" y1="17.512" y2="17.512" gradientUnits="userSpaceOnUse"/><linearGradient xlink:href="#j" id="G" x1="16.18" x2="13.453" y1="25.688" y2="25.688" gradientUnits="userSpaceOnUse"/><linearGradient xlink:href="#k" id="H" x1="16.234" x2="16.016" y1="25.906" y2="25.906" gradientUnits="userSpaceOnUse"/><linearGradient xlink:href="#l" id="J" x1="16.18" x2="26.703" y1="17.512" y2="17.512" gradientUnits="userSpaceOnUse"/><linearGradient xlink:href="#m" id="K" x1="16.18" x2="18.984" y1="25.688" y2="25.688" gradientUnits="userSpaceOnUse"/><linearGradient xlink:href="#n" id="L" x1="16.152" x2="16.359" y1="25.906" y2="25.906" gradientUnits="userSpaceOnUse"/><filter id="s" width="27.916" height="19.998" x="2.328" y="10.881" color-interpolation-filters="sRGB" filterUnits="userSpaceOnUse"><feFlood flood-opacity="0" result="BackgroundImageFix"/><feBlend in="SourceGraphic" in2="BackgroundImageFix" result="shape"/><feColorMatrix in="SourceAlpha" result="hardAlpha" values="0 0 0 0 0 0 0 0 0 0 0 0 0 0 0 0 0 0 127 0"/><feOffset dx=".15" dy="-.15"/><feGaussianBlur stdDeviation=".25"/><feComposite in2="hardAlpha" k2="-1" k3="1" operator="arithmetic"/><feColorMatrix values="0 0 0 0 0.305882 0 0 0 0 0.541176 0 0 0 0 0.780392 0 0 0 1 0"/><feBlend in2="shape" result="effect1_innerShadow_18_20736"/></filter><filter id="t" width="27.966" height="19.948" x="2.228" y="9.963" color-interpolation-filters="sRGB" filterUnits="userSpaceOnUse"><feFlood flood-opacity="0" result="BackgroundImageFix"/><feBlend in="SourceGraphic" in2="BackgroundImageFix" result="shape"/><feColorMatrix in="SourceAlpha" result="hardAlpha" values="0 0 0 0 0 0 0 0 0 0 0 0 0 0 0 0 0 0 127 0"/><feOffset dx="-.1"/><feGaussianBlur stdDeviation=".15"/><feComposite in2="hardAlpha" k2="-1" k3="1" operator="arithmetic"/><feColorMatrix values="0 0 0 0 0.45098 0 0 0 0 0.941176 0 0 0 0 1 0 0 0 1 0"/><feBlend in2="shape" result="effect1_innerShadow_18_20736"/><feColorMatrix in="SourceAlpha" result="hardAlpha" values="0 0 0 0 0 0 0 0 0 0 0 0 0 0 0 0 0 0 127 0"/><feOffset dx=".1" dy="-.1"/><feGaussianBlur stdDeviation=".15"/><feComposite in2="hardAlpha" k2="-1" k3="1" operator="arithmetic"/><feColorMatrix values="0 0 0 0 0.286275 0 0 0 0 0.666667 0 0 0 0 0.901961 0 0 0 1 0"/><feBlend in2="effect1_innerShadow_18_20736" result="effect2_innerShadow_18_20736"/></filter><filter id="v" width="26.938" height="19.055" x="2.531" y="8.594" color-interpolation-filters="sRGB" filterUnits="userSpaceOnUse"><feFlood flood-opacity="0" result="BackgroundImageFix"/><feBlend in="SourceGraphic" in2="BackgroundImageFix" result="shape"/><feGaussianBlur result="effect1_foregroundBlur_18_20736" stdDeviation=".25"/></filter><filter id="y" width="13.069" height="18.639" x="3.211" y="8.461" color-interpolation-filters="sRGB" filterUnits="userSpaceOnUse"><feFlood flood-opacity="0" result="BackgroundImageFix"/><feBlend in="SourceGraphic" in2="BackgroundImageFix" result="shape"/><feColorMatrix in="SourceAlpha" result="hardAlpha" values="0 0 0 0 0 0 0 0 0 0 0 0 0 0 0 0 0 0 127 0"/><feOffset dx=".1" dy=".1"/><feGaussianBlur stdDeviation=".15"/><feComposite in2="hardAlpha" k2="-1" k3="1" operator="arithmetic"/><feColorMatrix values="0 0 0 0 0.694118 0 0 0 0 0.705882 0 0 0 0 0.733333 0 0 0 1 0"/><feBlend in2="shape" result="effect1_innerShadow_18_20736"/></filter><filter id="A" width="13.069" height="18.639" x="16.18" y="8.461" color-interpolation-filters="sRGB" filterUnits="userSpaceOnUse"><feFlood flood-opacity="0" result="BackgroundImageFix"/><feBlend in="SourceGraphic" in2="BackgroundImageFix" result="shape"/><feColorMatrix in="SourceAlpha" result="hardAlpha" values="0 0 0 0 0 0 0 0 0 0 0 0 0 0 0 0 0 0 127 0"/><feOffset dx=".1" dy=".1"/><feGaussianBlur stdDeviation=".15"/><feComposite in2="hardAlpha" k2="-1" k3="1" operator="arithmetic"/><feColorMatrix values="0 0 0 0 0.831373 0 0 0 0 0.835294 0 0 0 0 0.854902 0 0 0 1 0"/><feBlend in2="shape" result="effect1_innerShadow_18_20736"/></filter><filter id="E" width="11.475" height="19.011" x="4.805" y="8.031" color-interpolation-filters="sRGB" filterUnits="userSpaceOnUse"><feFlood flood-opacity="0" result="BackgroundImageFix"/><feBlend in="SourceGraphic" in2="BackgroundImageFix" result="shape"/><feColorMatrix in="SourceAlpha" result="hardAlpha" values="0 0 0 0 0 0 0 0 0 0 0 0 0 0 0 0 0 0 127 0"/><feOffset dy=".05"/><feGaussianBlur stdDeviation=".15"/><feComposite in2="hardAlpha" k2="-1" k3="1" operator="arithmetic"/><feColorMatrix values="0 0 0 0 0.827451 0 0 0 0 0.819608 0 0 0 0 0.854902 0 0 0 1 0"/><feBlend in2="shape" result="effect1_innerShadow_18_20736"/><feColorMatrix in="SourceAlpha" result="hardAlpha" values="0 0 0 0 0 0 0 0 0 0 0 0 0 0 0 0 0 0 127 0"/><feOffset dx=".1"/><feGaussianBlur stdDeviation=".15"/><feComposite in2="hardAlpha" k2="-1" k3="1" operator="arithmetic"/><feColorMatrix values="0 0 0 0 0.980392 0 0 0 0 0.976471 0 0 0 0 1 0 0 0 1 0"/><feBlend in2="effect1_innerShadow_18_20736" result="effect2_innerShadow_18_20736"/></filter><filter id="I" width="11.475" height="19.011" x="16.08" y="8.031" color-interpolation-filters="sRGB" filterUnits="userSpaceOnUse"><feFlood flood-opacity="0" result="BackgroundImageFix"/><feBlend in="SourceGraphic" in2="BackgroundImageFix" result="shape"/><feColorMatrix in="SourceAlpha" result="hardAlpha" values="0 0 0 0 0 0 0 0 0 0 0 0 0 0 0 0 0 0 127 0"/><feOffset dx="-.1"/><feGaussianBlur stdDeviation=".15"/><feComposite in2="hardAlpha" k2="-1" k3="1" operator="arithmetic"/><feColorMatrix values="0 0 0 0 0.980392 0 0 0 0 0.976471 0 0 0 0 1 0 0 0 1 0"/><feBlend in2="shape" result="effect1_innerShadow_18_20736"/><feColorMatrix in="SourceAlpha" result="hardAlpha" values="0 0 0 0 0 0 0 0 0 0 0 0 0 0 0 0 0 0 127 0"/><feOffset dy=".05"/><feGaussianBlur stdDeviation=".15"/><feComposite in2="hardAlpha" k2="-1" k3="1" operator="arithmetic"/><feColorMatrix values="0 0 0 0 0.827451 0 0 0 0 0.819608 0 0 0 0 0.854902 0 0 0 1 0"/><feBlend in2="effect1_innerShadow_18_20736" result="effect2_innerShadow_18_20736"/></filter><radialGradient id="c" cx="0" cy="0" r="1" gradientTransform="matrix(2 -1 1.40312 2.80625 15.375 28.531)" gradientUnits="userSpaceOnUse"><stop offset=".232" stop-color="#306ab3"/><stop offset="1" stop-color="#1a4ca8"/></radialGradient><radialGradient xlink:href="#a" id="r" cx="2417.686" cy="351.564" r="180" fx="2417.686" fy="351.564" gradientTransform="translate(-103.37 -152.033)scale(.94444)" gradientUnits="userSpaceOnUse"/><radialGradient xlink:href="#c" id="w" cx="0" cy="0" r="1" gradientTransform="matrix(2 -1 1.40312 2.80625 15.375 28.531)" gradientUnits="userSpaceOnUse"/></defs><g transform="translate(-2000 -400)"><title>neovim-mark@2x</title><g fill="none" fill-rule="evenodd" stroke-width="2.025" style="stroke-width:2.025"><path fill="url(#o)" d="M0 155.57 155-1v728L0 572.238Z" style="fill:url(#o);stroke-width:2.025" transform="translate(2023.704 400.494)scale(.49383)"/><path fill="url(#p)" d="M443.06 156.982 600-1l-3.181 728L442 572.22Z" style="fill:url(#p);stroke-width:2.025" transform="matrix(-.49383 0 0 .49383 2538.272 400.494)"/><path fill="url(#q)" d="M154.986 0 558 615.19 445.225 728 42 114.172Z" style="fill:url(#q);stroke-width:2.025" transform="translate(2023.704 400.494)scale(.49383)"/><path fill="#000" fill-opacity=".13" d="M155 283.832 154.787 308 31 124.71 42.462 113Z" style="stroke-width:2.025" transform="translate(2023.704 400.494)scale(.49383)"/></g><g transform="translate(480 400)"><circle cx="2180" cy="180" r="170" style="opacity:1;fill:url(#r);stroke:#fff;stroke-width:20;stroke-linecap:round;stroke-linejoin:round;stroke-dasharray:none;paint-order:stroke markers fill"/><g fill="none"><g filter="url(#s)" transform="translate(2052.504 26.935)scale(7.85266)"><path fill="#3e6aca" d="M3.578 11.031c-.69 0-1.25.56-1.25 1.25v16.39c0 .691.56 1.25 1.25 1.25h11.005a1.863 1.863 0 0 0 3.256 0h11.005c.69 0 1.25-.559 1.25-1.25v-16.39c0-.69-.56-1.25-1.25-1.25z"/></g><g filter="url(#t)" transform="translate(2052.504 26.935)scale(7.85266)"><path fill="url(#b)" d="M3.578 10.063c-.69 0-1.25.56-1.25 1.25v16.39c0 .69.56 1.25 1.25 1.25h11.005a1.863 1.863 0 0 0 3.256 0h11.005c.69 0 1.25-.56 1.25-1.25v-16.39c0-.69-.56-1.25-1.25-1.25z" style="fill:url(#u)"/></g><g filter="url(#v)" transform="translate(2052.504 26.935)scale(7.85266)"><path fill="#3f9bea" d="m4.81 9.094-1.565 1.941a.96.96 0 0 0-.214.602V25.93c0 .672.56 1.217 1.25 1.217H27.72c.69 0 1.25-.545 1.25-1.217V11.637a.96.96 0 0 0-.214-.602L27.19 9.094 25.348 23.74H6.652Z"/></g><path fill="url(#c)" d="M14.773 25.703h2.875v1.578a1.438 1.438 0 1 1-2.875 0z" style="fill:url(#w)" transform="translate(2052.504 26.935)scale(7.85266)"/><path fill="url(#d)" d="M14.773 25.703h2.875v1.578a1.438 1.438 0 1 1-2.875 0z" style="fill:url(#x)" transform="translate(2052.504 26.935)scale(7.85266)"/><g filter="url(#y)" transform="translate(2052.504 26.935)scale(7.85266)"><path fill="url(#e)" d="M3.424 10.455 4.99 8.46 6.832 23.5h9.348V27H4.46c-.69 0-1.25-.56-1.25-1.25V11.072a1 1 0 0 1 .214-.617" style="fill:url(#z)"/></g><g filter="url(#A)" transform="translate(2052.504 26.935)scale(7.85266)"><path fill="url(#f)" d="M28.935 10.455 27.369 8.46 25.528 23.5H16.18V27h11.718c.69 0 1.25-.56 1.25-1.25V11.072a1 1 0 0 0-.213-.617" style="fill:url(#B)"/><path fill="url(#g)" d="M28.935 10.455 27.369 8.46 25.528 23.5H16.18V27h11.718c.69 0 1.25-.56 1.25-1.25V11.072a1 1 0 0 0-.213-.617" style="fill:url(#C)"/></g><path fill="url(#h)" d="M28.935 10.455 27.369 8.46 25.528 23.5H16.18V27h11.718c.69 0 1.25-.56 1.25-1.25V11.072a1 1 0 0 0-.213-.617" style="fill:url(#D)" transform="translate(2052.504 26.935)scale(7.85266)"/><g filter="url(#E)" transform="translate(2052.504 26.935)scale(7.85266)"><path fill="url(#i)" d="M4.805 9.031a1 1 0 0 1 1-1h7.875a2.5 2.5 0 0 1 2.5 2.5v16.461c0-1.1-1.133-1.992-2.446-1.992h-7.68c-.69 0-1.25-.56-1.25-1.25z" style="fill:url(#F)"/><path fill="url(#j)" d="M4.805 9.031a1 1 0 0 1 1-1h7.875a2.5 2.5 0 0 1 2.5 2.5v16.461c0-1.1-1.133-1.992-2.446-1.992h-7.68c-.69 0-1.25-.56-1.25-1.25z" style="fill:url(#G)"/><path fill="url(#k)" d="M4.805 9.031a1 1 0 0 1 1-1h7.875a2.5 2.5 0 0 1 2.5 2.5v16.461c0-1.1-1.133-1.992-2.446-1.992h-7.68c-.69 0-1.25-.56-1.25-1.25z" style="fill:url(#H)"/></g><g filter="url(#I)" transform="translate(2052.504 26.935)scale(7.85266)"><path fill="url(#l)" d="M27.555 9.031a1 1 0 0 0-1-1H18.68a2.5 2.5 0 0 0-2.5 2.5v16.461c0-1.1 1.133-1.992 2.445-1.992h7.68c.69 0 1.25-.56 1.25-1.25z" style="fill:url(#J)"/><path fill="url(#m)" d="M27.555 9.031a1 1 0 0 0-1-1H18.68a2.5 2.5 0 0 0-2.5 2.5v16.461c0-1.1 1.133-1.992 2.445-1.992h7.68c.69 0 1.25-.56 1.25-1.25z" style="fill:url(#K)"/><path fill="url(#n)" d="M27.555 9.031a1 1 0 0 0-1-1H18.68a2.5 2.5 0 0 0-2.5 2.5v16.461c0-1.1 1.133-1.992 2.445-1.992h7.68c.69 0 1.25-.56 1.25-1.25z" style="fill:url(#L)"/></g></g></g><text xml:space="preserve" x="2408.808" y="606.901" style="font-weight:700;font-size:261.333px;line-height:1.5;font-family:Tangerine;-inkscape-font-specification:&quot;Tangerine, Bold&quot;;text-align:center;letter-spacing:0;writing-mode:lr-tb;direction:ltr;text-anchor:middle;fill:#6d6d6d;fill-opacity:1;stroke:#fff;stroke-width:20;stroke-linecap:round;stroke-linejoin:round;paint-order:stroke markers fill"><tspan x="2408.808" y="606.901">x</tspan></text></g></svg>